<svg width="55" height="75" viewBox="0 0 55 75" fill="none" xmlns="http://www.w3.org/2000/svg">
<path d="M1.45316 33.6064C3.14039 44.7598 19.3529 64.5161 27.2482 73C37.7934 60.6794 46.7162 50.142 52.3943 33.6064C55.4708 24.6472 51.5878 0.171175 27.2482 1.02162C4.04884 1.83222 -0.65587 19.6647 1.45316 33.6064Z" fill="#9747FF" stroke="black" stroke-width="2"/>
<path d="M14.9507 41.2118V42.3093H15.9507C14.9507 42.3093 14.9507 42.3098 14.9507 42.3103L14.9507 42.3114L14.9507 42.3136L14.9507 42.3187L14.9509 42.3311C14.951 42.3403 14.9513 42.3515 14.9517 42.3646C14.9526 42.3906 14.9542 42.4243 14.957 42.4644C14.9627 42.5443 14.9737 42.652 14.9948 42.7785C15.0361 43.0269 15.1208 43.3733 15.3001 43.7319C15.4813 44.0943 15.7689 44.4872 16.2189 44.7873C16.6752 45.0915 17.2387 45.26 17.9013 45.26C18.564 45.26 19.1275 45.0915 19.5838 44.7873C20.0338 44.4872 20.3214 44.0943 20.5026 43.7319C20.6819 43.3733 20.7665 43.0269 20.8079 42.7785C20.829 42.652 20.8399 42.5443 20.8456 42.4644C20.8485 42.4243 20.8501 42.3906 20.851 42.3646C20.8514 42.3515 20.8517 42.3403 20.8518 42.3311L20.852 42.3187L20.852 42.3136L20.852 42.3114L20.852 42.3103C20.852 42.3098 20.852 42.3093 19.852 42.3093H20.852V41.3587H32.5067V42.3093H33.5067C32.5067 42.3093 32.5067 42.3098 32.5067 42.3103L32.5067 42.3114L32.5067 42.3136L32.5067 42.3187L32.5069 42.3311C32.507 42.3403 32.5073 42.3515 32.5077 42.3646C32.5086 42.3906 32.5102 42.4243 32.513 42.4644C32.5187 42.5443 32.5297 42.652 32.5508 42.7785C32.5921 43.0269 32.6768 43.3733 32.8561 43.7319C33.0373 44.0943 33.3249 44.4872 33.7749 44.7873C34.2312 45.0915 34.7947 45.26 35.4573 45.26C36.12 45.26 36.6835 45.0915 37.1398 44.7873C37.5898 44.4872 37.8774 44.0943 38.0586 43.7319C38.2379 43.3733 38.3225 43.0269 38.3639 42.7785C38.385 42.652 38.3959 42.5443 38.4016 42.4644C38.4045 42.4243 38.4061 42.3906 38.407 42.3646C38.4071 42.3605 38.4072 42.3566 38.4073 42.3529C38.4076 42.3447 38.4077 42.3374 38.4078 42.3311L38.408 42.3187L38.408 42.3136L38.408 42.3114L38.408 42.3103C38.408 42.3098 38.408 42.3093 37.408 42.3093H38.408V41.1835C38.5431 41.1386 38.6858 41.0816 38.8305 41.0093C39.193 40.828 39.5859 40.5405 39.8859 40.0904C40.1901 39.6341 40.3587 39.0707 40.3587 38.408V20.3567C40.3587 18.1534 39.6857 16.5135 38.4891 15.4383C37.3127 14.3812 35.7743 14 34.2877 14H19.852C18.3615 14 16.6713 14.4028 15.3272 15.4143C13.9441 16.4553 13 18.0911 13 20.3567V30.9939V38.408H14C13 38.408 13 38.4085 13 38.409L13 38.4101L13 38.4123L13 38.4174L13.0002 38.4297C13.0003 38.439 13.0006 38.4502 13.001 38.4632C13.0019 38.4893 13.0035 38.5229 13.0064 38.5631C13.0121 38.643 13.023 38.7506 13.0441 38.8772C13.0855 39.1256 13.1701 39.472 13.3494 39.8305C13.5306 40.193 13.8182 40.5859 14.2682 40.8859C14.4741 41.0232 14.7019 41.1328 14.9507 41.2118ZM16.9519 28.6672C16.9512 28.6566 16.9508 28.6492 16.9507 28.6454V22.812C16.9508 22.8082 16.9512 22.8007 16.9519 22.7901C16.9538 22.7633 16.9582 22.7186 16.9675 22.6623C16.9871 22.5449 17.0244 22.4037 17.0889 22.2745C17.1515 22.1493 17.2297 22.0546 17.3283 21.9888C17.4206 21.9273 17.5887 21.852 17.9013 21.852H35.4573C35.7768 21.852 35.9495 21.9268 36.0433 21.9872C36.1417 22.0506 36.2167 22.1398 36.2759 22.2543C36.3375 22.3735 36.3733 22.5042 36.3921 22.6131C36.4011 22.6653 36.4051 22.7065 36.4069 22.7306C36.4075 22.7389 36.4078 22.7449 36.408 22.7483V28.6454C36.4078 28.6492 36.4075 28.6566 36.4067 28.6672C36.4048 28.694 36.4005 28.7387 36.3911 28.7951C36.3716 28.9124 36.3343 29.0537 36.2697 29.1828C36.2071 29.308 36.1289 29.4028 36.0304 29.4685C35.938 29.53 35.77 29.6053 35.4573 29.6053H17.9013C17.5887 29.6053 17.4206 29.53 17.3283 29.4685C17.2297 29.4028 17.1515 29.308 17.0889 29.1828C17.0244 29.0537 16.9871 28.9124 16.9675 28.7951C16.9582 28.7387 16.9538 28.694 16.9519 28.6672ZM17.9013 35.5067C18.4264 35.5067 18.852 35.9323 18.852 36.4573C18.852 36.9824 18.4264 37.408 17.9013 37.408C17.3763 37.408 16.9507 36.9824 16.9507 36.4573C16.9507 35.9323 17.3763 35.5067 17.9013 35.5067ZM35.4573 35.5067C35.9824 35.5067 36.408 35.9323 36.408 36.4573C36.408 36.9824 35.9824 37.408 35.4573 37.408C34.9323 37.408 34.5067 36.9824 34.5067 36.4573C34.5067 35.9323 34.9323 35.5067 35.4573 35.5067Z" fill="white" stroke="black" stroke-width="2"/>
</svg>