<svg width="55" height="75" viewBox="0 0 55 75" fill="none" xmlns="http://www.w3.org/2000/svg">
<path d="M1.45316 33.6064C3.14039 44.7598 19.3529 64.5161 27.2482 73C37.7934 60.6794 46.7162 50.142 52.3943 33.6064C55.4708 24.6472 51.5878 0.171175 27.2482 1.02162C4.04884 1.83222 -0.65587 19.6647 1.45316 33.6064Z" fill="#FF7900" stroke="black" stroke-width="2"/>
<path d="M27.9133 16.3957L27.4904 16.1984L27.0675 16.3957L13.4826 22.7353L11.5054 23.658L13.4952 24.5534L16.5282 25.9183V27.7155C15.4078 28.3823 14.7168 29.6312 14.7168 30.8868C14.7168 32.0575 15.3175 33.2223 16.3068 33.915L14.9788 37.0136L14.9624 37.0519L14.9493 37.0913C14.6356 38.0325 14.5131 39.2176 15.0677 40.2227C15.6658 41.3067 16.8546 41.8491 18.4338 41.8491C20.013 41.8491 21.2019 41.3067 21.8 40.2227C21.878 40.0813 21.9426 39.9363 21.9952 39.7889L22.3871 39.9569C23.7711 40.55 25.3537 40.9434 27.3093 40.9434C33.7118 40.9434 36.4602 36.9921 36.4602 34.5094V29.0755V27.5367L35.0541 28.1617L27.3156 31.601L23.3788 29.7966L21.9621 29.1473V29.6671C21.7167 28.9188 21.2443 28.3071 20.618 27.8775L27.0675 30.8873L27.4904 31.0847L27.9133 30.8873L41.4982 24.5477L43.44 23.6415L41.4982 22.7353L27.9133 16.3957Z" fill="white" stroke="black" stroke-width="2"/>
</svg>