<svg width="55" height="75" viewBox="0 0 55 75" fill="none" xmlns="http://www.w3.org/2000/svg">
<path d="M1.73636 33.6064C3.42359 44.7598 19.6361 64.5161 27.5314 73C38.0766 60.6794 46.9994 50.142 52.6775 33.6064C55.754 24.6472 51.871 0.171175 27.5314 1.02162C4.33204 1.83222 -0.372667 19.6647 1.73636 33.6064Z" fill="#799CF0" stroke="black" stroke-width="2"/>
<mask id="path-2-outside-1_68_86" maskUnits="userSpaceOnUse" x="13.1885" y="12.9058" width="30" height="32" fill="black">
<rect fill="white" x="13.1885" y="12.9058" width="30" height="32"/>
<path d="M27.7734 13.9058C20.2891 13.9058 14.1885 20.0064 14.1885 27.4907C14.1885 32.3313 16.7489 36.5788 20.5767 38.9856H20.4584L18.3684 43.1656H37.1783L35.0883 38.9856H34.97C38.7978 36.5788 41.3583 32.3313 41.3583 27.4907C41.3583 20.0064 35.2576 13.9058 27.7734 13.9058ZM27.5121 17.0531V24.368C26.8626 24.4224 26.2462 24.6778 25.7486 25.0987L20.5767 19.9268C22.3902 18.2017 24.8163 17.1193 27.5121 17.0531ZM28.0346 17.0531C30.7305 17.1193 33.1566 18.2017 34.97 19.9268L29.7982 25.0987C29.7967 25.0972 29.7954 25.096 29.794 25.0945C29.297 24.6759 28.6821 24.4219 28.0346 24.368V17.0531ZM20.2095 20.294L25.3814 25.4659C25.3799 25.4674 25.3787 25.4686 25.3772 25.4701C24.9586 25.9671 24.7047 26.5819 24.6507 27.2294H17.3358C17.402 24.5335 18.4844 22.1075 20.2095 20.294ZM35.3372 20.294C37.0623 22.1073 38.1447 24.5335 38.211 27.2294H30.896C30.8417 26.5799 30.5863 25.9635 30.1654 25.4659L35.3372 20.294ZM17.3358 27.7519H24.6507C24.7051 28.4015 24.9605 29.0178 25.3814 29.5154L20.2095 34.6873C18.4844 32.8738 17.402 30.4478 17.3358 27.7519ZM30.896 27.7519H38.211C38.1447 30.4478 37.0623 32.8738 35.3372 34.6873L30.1654 29.5154C30.1668 29.514 30.1681 29.5127 30.1695 29.5113C30.5882 29.0143 30.8421 28.3994 30.896 27.7519ZM25.7486 29.8827L25.7528 29.8868C26.042 30.1291 26.3725 30.3172 26.7284 30.4419V37.8875C24.3452 37.6526 22.2128 36.6109 20.5767 35.0545L25.7486 29.8827ZM29.7982 29.8827L34.97 35.0545C33.334 36.6109 31.2018 37.6524 28.8184 37.8875V30.4419C29.176 30.3163 29.5081 30.1268 29.7982 29.8827Z"/>
</mask>
<path d="M27.7734 13.9058C20.2891 13.9058 14.1885 20.0064 14.1885 27.4907C14.1885 32.3313 16.7489 36.5788 20.5767 38.9856H20.4584L18.3684 43.1656H37.1783L35.0883 38.9856H34.97C38.7978 36.5788 41.3583 32.3313 41.3583 27.4907C41.3583 20.0064 35.2576 13.9058 27.7734 13.9058ZM27.5121 17.0531V24.368C26.8626 24.4224 26.2462 24.6778 25.7486 25.0987L20.5767 19.9268C22.3902 18.2017 24.8163 17.1193 27.5121 17.0531ZM28.0346 17.0531C30.7305 17.1193 33.1566 18.2017 34.97 19.9268L29.7982 25.0987C29.7967 25.0972 29.7954 25.096 29.794 25.0945C29.297 24.6759 28.6821 24.4219 28.0346 24.368V17.0531ZM20.2095 20.294L25.3814 25.4659C25.3799 25.4674 25.3787 25.4686 25.3772 25.4701C24.9586 25.9671 24.7047 26.5819 24.6507 27.2294H17.3358C17.402 24.5335 18.4844 22.1075 20.2095 20.294ZM35.3372 20.294C37.0623 22.1073 38.1447 24.5335 38.211 27.2294H30.896C30.8417 26.5799 30.5863 25.9635 30.1654 25.4659L35.3372 20.294ZM17.3358 27.7519H24.6507C24.7051 28.4015 24.9605 29.0178 25.3814 29.5154L20.2095 34.6873C18.4844 32.8738 17.402 30.4478 17.3358 27.7519ZM30.896 27.7519H38.211C38.1447 30.4478 37.0623 32.8738 35.3372 34.6873L30.1654 29.5154C30.1668 29.514 30.1681 29.5127 30.1695 29.5113C30.5882 29.0143 30.8421 28.3994 30.896 27.7519ZM25.7486 29.8827L25.7528 29.8868C26.042 30.1291 26.3725 30.3172 26.7284 30.4419V37.8875C24.3452 37.6526 22.2128 36.6109 20.5767 35.0545L25.7486 29.8827ZM29.7982 29.8827L34.97 35.0545C33.334 36.6109 31.2018 37.6524 28.8184 37.8875V30.4419C29.176 30.3163 29.5081 30.1268 29.7982 29.8827Z" fill="white"/>
<path d="M20.5767 38.9856V39.9856H24.0458L21.109 38.139L20.5767 38.9856ZM20.4584 38.9856V37.9856H19.8404L19.564 38.5384L20.4584 38.9856ZM18.3684 43.1656L17.474 42.7183L16.7504 44.1656H18.3684V43.1656ZM37.1783 43.1656V44.1656H38.7963L38.0727 42.7183L37.1783 43.1656ZM35.0883 38.9856L35.9828 38.5384L35.7064 37.9856H35.0883V38.9856ZM34.97 38.9856L34.4377 38.139L31.501 39.9856H34.97V38.9856ZM27.5121 17.0531H28.5121V16.0282L27.4876 16.0534L27.5121 17.0531ZM27.5121 24.368L27.5955 25.3645L28.5121 25.2879V24.368H27.5121ZM25.7486 25.0987L25.0415 25.8058L25.692 26.4563L26.3944 25.8622L25.7486 25.0987ZM20.5767 19.9268L19.8875 19.2023L19.1446 19.9089L19.8696 20.6339L20.5767 19.9268ZM28.0346 17.0531L28.0592 16.0534L27.0346 16.0282V17.0531H28.0346ZM34.97 19.9268L35.6771 20.6339L36.4021 19.9089L35.6593 19.2023L34.97 19.9268ZM29.7982 25.0987L29.0911 25.8058L29.7982 26.5129L30.5053 25.8058L29.7982 25.0987ZM29.794 25.0945L30.5011 24.3874L30.4709 24.3572L30.4382 24.3297L29.794 25.0945ZM28.0346 24.368H27.0346V25.2882L27.9516 25.3646L28.0346 24.368ZM20.2095 20.294L20.9166 19.5869L20.1916 18.8619L19.485 19.6048L20.2095 20.294ZM25.3814 25.4659L26.0885 26.173L26.7956 25.4659L26.0885 24.7588L25.3814 25.4659ZM25.3772 25.4701L24.6701 24.763L24.6399 24.7932L24.6124 24.8258L25.3772 25.4701ZM24.6507 27.2294V28.2294H25.5709L25.6473 27.3124L24.6507 27.2294ZM17.3358 27.2294L16.3361 27.2049L16.3109 28.2294H17.3358V27.2294ZM35.3372 20.294L36.0618 19.6047L35.3551 18.862L34.6301 19.5869L35.3372 20.294ZM38.211 27.2294V28.2294H39.2359L39.2107 27.2049L38.211 27.2294ZM30.896 27.2294L29.8995 27.3128L29.9762 28.2294H30.896V27.2294ZM30.1654 25.4659L29.4583 24.7588L28.8077 25.4093L29.4019 26.1117L30.1654 25.4659ZM17.3358 27.7519V26.7519H16.3109L16.3361 27.7765L17.3358 27.7519ZM24.6507 27.7519L25.6473 27.6686L25.5706 26.7519H24.6507V27.7519ZM25.3814 29.5154L26.0885 30.2226L26.739 29.572L26.1449 28.8696L25.3814 29.5154ZM20.2095 34.6873L19.485 35.3766L20.1916 36.1194L20.9166 35.3944L20.2095 34.6873ZM30.896 27.7519V26.7519H29.9758L29.8995 27.6689L30.896 27.7519ZM38.211 27.7519L39.2107 27.7765L39.2359 26.7519H38.211V27.7519ZM35.3372 34.6873L34.6301 35.3944L35.3551 36.1194L36.0618 35.3766L35.3372 34.6873ZM30.1654 29.5154L29.4583 28.8083L28.7512 29.5154L29.4583 30.2226L30.1654 29.5154ZM30.1695 29.5113L30.8767 30.2184L30.9069 30.1882L30.9344 30.1555L30.1695 29.5113ZM25.7486 29.8827L26.4558 29.1756L25.7487 28.4684L25.0415 29.1755L25.7486 29.8827ZM25.7528 29.8868L25.0456 30.5939L25.0769 30.6251L25.1107 30.6535L25.7528 29.8868ZM26.7284 30.4419H27.7284V29.7328L27.0592 29.4982L26.7284 30.4419ZM26.7284 37.8875L26.6303 38.8827L27.7284 38.9909V37.8875H26.7284ZM20.5767 35.0545L19.8696 34.3474L19.1447 35.0724L19.8875 35.7791L20.5767 35.0545ZM29.7982 29.8827L30.5053 29.1755L29.8564 28.5267L29.1543 29.1175L29.7982 29.8827ZM34.97 35.0545L35.6593 35.7791L36.4021 35.0724L35.6771 34.3474L34.97 35.0545ZM28.8184 37.8875H27.8184V38.991L28.9165 38.8827L28.8184 37.8875ZM28.8184 30.4419L28.487 29.4984L27.8184 29.7333V30.4419H28.8184ZM27.7734 12.9058C19.7369 12.9058 13.1885 19.4541 13.1885 27.4907H15.1885C15.1885 20.5587 20.8414 14.9058 27.7734 14.9058V12.9058ZM13.1885 27.4907C13.1885 32.6934 15.9414 37.2523 20.0444 39.8321L21.109 38.139C17.5564 35.9053 15.1885 31.9692 15.1885 27.4907H13.1885ZM20.5767 37.9856H20.4584V39.9856H20.5767V37.9856ZM19.564 38.5384L17.474 42.7183L19.2629 43.6128L21.3529 39.4328L19.564 38.5384ZM18.3684 44.1656H37.1783V42.1656H18.3684V44.1656ZM38.0727 42.7183L35.9828 38.5384L34.1939 39.4328L36.2839 43.6128L38.0727 42.7183ZM35.0883 37.9856H34.97V39.9856H35.0883V37.9856ZM35.5023 39.8321C39.6054 37.2523 42.3583 32.6934 42.3583 27.4907H40.3583C40.3583 31.9692 37.9903 35.9053 34.4377 38.139L35.5023 39.8321ZM42.3583 27.4907C42.3583 19.4541 35.8099 12.9058 27.7734 12.9058V14.9058C34.7053 14.9058 40.3583 20.5587 40.3583 27.4907H42.3583ZM26.5121 17.0531V24.368H28.5121V17.0531H26.5121ZM27.4288 23.3715C26.572 23.4432 25.7591 23.78 25.1028 24.3352L26.3944 25.8622C26.7334 25.5755 27.1531 25.4015 27.5955 25.3645L27.4288 23.3715ZM26.4557 24.3916L21.2838 19.2197L19.8696 20.6339L25.0415 25.8058L26.4557 24.3916ZM21.266 20.6513C22.9074 19.09 25.0992 18.1127 27.5367 18.0528L27.4876 16.0534C24.5333 16.126 21.8731 17.3135 19.8875 19.2023L21.266 20.6513ZM28.0101 18.0528C30.4475 18.1127 32.6394 19.09 34.2808 20.6513L35.6593 19.2023C33.6737 17.3135 31.0135 16.126 28.0592 16.0534L28.0101 18.0528ZM34.2629 19.2197L29.0911 24.3916L30.5053 25.8058L35.6771 20.6339L34.2629 19.2197ZM30.5053 24.3916C30.5046 24.3909 30.504 24.3903 30.5033 24.3896C30.5026 24.3889 30.5019 24.3882 30.5011 24.3874L29.0869 25.8016C29.0875 25.8023 29.0881 25.8029 29.0888 25.8036C29.0895 25.8042 29.0902 25.805 29.0911 25.8058L30.5053 24.3916ZM30.4382 24.3297C29.7827 23.7776 28.9718 23.4426 28.1176 23.3715L27.9516 25.3646C28.3925 25.4013 28.8112 25.5742 29.1498 25.8593L30.4382 24.3297ZM29.0346 24.368V17.0531H27.0346V24.368H29.0346ZM19.5024 21.0011L24.6743 26.173L26.0885 24.7588L20.9166 19.5869L19.5024 21.0011ZM24.6743 24.7588C24.6736 24.7594 24.673 24.7601 24.6723 24.7607C24.6717 24.7614 24.6709 24.7622 24.6701 24.763L26.0843 26.1772C26.085 26.1765 26.0856 26.1759 26.0863 26.1752C26.087 26.1745 26.0877 26.1738 26.0885 26.173L24.6743 24.7588ZM24.6124 24.8258C24.0603 25.4813 23.7253 26.2923 23.6542 27.1464L25.6473 27.3124C25.684 26.8716 25.8569 26.4528 26.142 26.1143L24.6124 24.8258ZM24.6507 26.2294H17.3358V28.2294H24.6507V26.2294ZM18.3355 27.254C18.3954 24.8165 19.3727 22.6246 20.9341 20.9832L19.485 19.6048C17.5962 21.5903 16.4087 24.2506 16.3361 27.2049L18.3355 27.254ZM34.6127 20.9833C36.1741 22.6244 37.1514 24.8165 37.2113 27.254L39.2107 27.2049C39.1381 24.2506 37.9506 21.5901 36.0618 19.6047L34.6127 20.9833ZM38.211 26.2294H30.896V28.2294H38.211V26.2294ZM31.8925 27.1461C31.8209 26.2893 31.484 25.4764 30.9289 24.8201L29.4019 26.1117C29.6886 26.4506 29.8625 26.8704 29.8995 27.3128L31.8925 27.1461ZM30.8725 26.173L36.0444 21.0011L34.6301 19.5869L29.4583 24.7588L30.8725 26.173ZM17.3358 28.7519H24.6507V26.7519H17.3358V28.7519ZM23.6542 27.8353C23.7259 28.692 24.0628 29.505 24.6179 30.1613L26.1449 28.8696C25.8582 28.5307 25.6843 28.1109 25.6473 27.6686L23.6542 27.8353ZM24.6743 28.8083L19.5024 33.9802L20.9166 35.3944L26.0885 30.2226L24.6743 28.8083ZM20.9341 33.9981C19.3727 32.3567 18.3954 30.1648 18.3355 27.7273L16.3361 27.7765C16.4087 30.7308 17.5962 33.391 19.485 35.3766L20.9341 33.9981ZM30.896 28.7519H38.211V26.7519H30.896V28.7519ZM37.2113 27.7273C37.1514 30.1648 36.1741 32.3567 34.6127 33.9981L36.0618 35.3766C37.9506 33.391 39.1381 30.7308 39.2107 27.7765L37.2113 27.7273ZM36.0444 33.9802L30.8725 28.8083L29.4583 30.2226L34.6301 35.3944L36.0444 33.9802ZM30.8725 30.2226C30.875 30.22 30.8721 30.2229 30.8746 30.2205C30.8748 30.2202 30.8745 30.2205 30.8748 30.2202C30.8767 30.2183 30.8732 30.2219 30.8751 30.22C30.8772 30.2179 30.8732 30.2218 30.8753 30.2197C30.8754 30.2196 30.8755 30.2195 30.8756 30.2194C30.8787 30.2163 30.873 30.222 30.8761 30.2189C30.8777 30.2173 30.875 30.22 30.8767 30.2184L29.4624 28.8042C29.4621 28.8045 29.4622 28.8044 29.4619 28.8047C29.461 28.8056 29.4622 28.8044 29.4614 28.8052C29.4256 28.841 29.4961 28.7705 29.4604 28.8062C29.4602 28.8064 29.46 28.8066 29.4598 28.8068C29.4594 28.8072 29.4597 28.8069 29.4593 28.8073C29.4547 28.8119 29.4629 28.8037 29.4583 28.8083L30.8725 30.2226ZM30.9344 30.1555C31.4865 29.5 31.8214 28.689 31.8926 27.8349L29.8995 27.6689C29.8628 28.1097 29.6899 28.5285 29.4047 28.867L30.9344 30.1555ZM25.0414 30.5897L25.0456 30.5939L26.46 29.1798L26.4558 29.1756L25.0414 30.5897ZM25.1107 30.6535C25.492 30.9728 25.9279 31.221 26.3976 31.3856L27.0592 29.4982C26.8171 29.4134 26.592 29.2853 26.3948 29.1202L25.1107 30.6535ZM25.7284 30.4419V37.8875H27.7284V30.4419H25.7284ZM26.8265 36.8923C24.6763 36.6804 22.749 35.7409 21.266 34.33L19.8875 35.7791C21.6765 37.481 24.0141 38.6248 26.6303 38.8827L26.8265 36.8923ZM21.2838 35.7616L26.4557 30.5898L25.0415 29.1755L19.8696 34.3474L21.2838 35.7616ZM29.0911 30.5898L34.2629 35.7616L35.6771 34.3474L30.5053 29.1755L29.0911 30.5898ZM34.2808 34.33C32.7978 35.7408 30.8707 36.6802 28.7202 36.8923L28.9165 38.8827C31.5328 38.6246 33.8702 37.481 35.6593 35.7791L34.2808 34.33ZM29.8184 37.8875V30.4419H27.8184V37.8875H29.8184ZM29.1498 31.3854C29.6215 31.2197 30.0594 30.9697 30.442 30.6478L29.1543 29.1175C28.9567 29.2838 28.7305 29.4129 28.487 29.4984L29.1498 31.3854Z" fill="black" mask="url(#path-2-outside-1_68_86)"/>
</svg>