<svg width="40" height="47" viewBox="0 0 40 47" fill="none" xmlns="http://www.w3.org/2000/svg">
<path d="M9.23077 0C5.03508 0 0 2.28708 0 8.44954V25.2283V36.9231C0 36.9231 0 40 3.07692 40V43.0769C3.07692 43.0769 3.07692 46.1538 6.15385 46.1538C9.23077 46.1538 9.23077 43.0769 9.23077 43.0769V40H30.7692V43.0769C30.7692 43.0769 30.7692 46.1538 33.8462 46.1538C36.9231 46.1538 36.9231 43.0769 36.9231 43.0769V40C36.9231 40 40 40 40 36.9231V8.44954C40 2.15569 36.1969 0 32.0012 0H9.23077ZM10 4.61538H30C30.4262 4.61538 30.7692 4.95846 30.7692 5.38462C30.7692 5.81077 30.4262 6.15385 30 6.15385H10C9.57385 6.15385 9.23077 5.81077 9.23077 5.38462C9.23077 4.95846 9.57385 4.61538 10 4.61538ZM6.15385 9.23077H33.8462C36.9231 9.23077 36.9231 12.2055 36.9231 12.2055V21.5385C36.9231 21.5385 36.9231 24.6154 33.8462 24.6154H6.15385C3.07692 24.6154 3.07692 21.5385 3.07692 21.5385V12.3077C3.07692 12.3077 3.07692 9.23077 6.15385 9.23077ZM6.15385 30.7692C7.85323 30.7692 9.23077 32.1468 9.23077 33.8462C9.23077 35.5455 7.85323 36.9231 6.15385 36.9231C4.45446 36.9231 3.07692 35.5455 3.07692 33.8462C3.07692 32.1468 4.45446 30.7692 6.15385 30.7692ZM33.8462 30.7692C35.5455 30.7692 36.9231 32.1468 36.9231 33.8462C36.9231 35.5455 35.5455 36.9231 33.8462 36.9231C32.1468 36.9231 30.7692 35.5455 30.7692 33.8462C30.7692 32.1468 32.1468 30.7692 33.8462 30.7692Z" fill="white"/>
</svg>
