<svg width="40" height="44" viewBox="0 0 40 44" fill="none" xmlns="http://www.w3.org/2000/svg">
<path d="M20 0C8.98154 0 0 8.98154 0 20C0 27.1265 3.76954 33.3797 9.40492 36.9231H9.23077L6.15385 43.0769H33.8462L30.7692 36.9231H30.5951C36.2305 33.3797 40 27.1265 40 20C40 8.98154 31.0185 0 20 0ZM19.6154 4.63354V15.4028C18.6591 15.4828 17.7517 15.8588 17.0191 16.4785L9.40492 8.86431C12.0748 6.32462 15.6465 4.73108 19.6154 4.63354ZM20.3846 4.63354C24.3535 4.73108 27.9252 6.32462 30.5951 8.86431L22.9809 16.4785C22.9788 16.4763 22.9769 16.4745 22.9748 16.4723C22.2431 15.856 21.3378 15.4822 20.3846 15.4028V4.63354ZM8.86431 9.40492L16.4785 17.0191C16.4763 17.0212 16.4745 17.0231 16.4723 17.0252C15.856 17.7569 15.4822 18.6622 15.4028 19.6154H4.63354C4.73108 15.6465 6.32462 12.0748 8.86431 9.40492ZM31.1357 9.40492C33.6754 12.0745 35.2689 15.6465 35.3665 19.6154H24.5972C24.5172 18.6591 24.1412 17.7517 23.5215 17.0191L31.1357 9.40492ZM4.63354 20.3846H15.4028C15.4828 21.3409 15.8588 22.2483 16.4785 22.9809L8.86431 30.5951C6.32462 27.9252 4.73108 24.3535 4.63354 20.3846ZM24.5972 20.3846H35.3665C35.2689 24.3535 33.6754 27.9252 31.1357 30.5951L23.5215 22.9809C23.5237 22.9788 23.5255 22.9769 23.5277 22.9748C24.144 22.2431 24.5178 21.3378 24.5972 20.3846ZM17.0191 23.5215L17.0252 23.5277C17.4511 23.8843 17.9375 24.1612 18.4615 24.3449V35.3065C14.9529 34.9606 11.8135 33.4271 9.40492 31.1357L17.0191 23.5215ZM22.9809 23.5215L30.5951 31.1357C28.1865 33.4271 25.0474 34.9603 21.5385 35.3065V24.3449C22.0649 24.16 22.5538 23.8809 22.9809 23.5215Z" fill="white"/>
</svg>
