<svg width="55" height="75" viewBox="0 0 55 75" fill="none" xmlns="http://www.w3.org/2000/svg">
<path d="M1.45316 33.6064C3.14039 44.7598 19.3529 64.5161 27.2482 73C37.7934 60.6794 46.7162 50.142 52.3943 33.6064C55.4708 24.6472 51.5878 0.171175 27.2482 1.02162C4.04884 1.83222 -0.65587 19.6647 1.45316 33.6064Z" fill="#FF8B88" stroke="black" stroke-width="2"/>
<path d="M26.4454 14.2642C25.5912 14.2642 24.8016 14.5533 24.2231 15.1318C23.6446 15.7103 23.3554 16.4999 23.3554 17.3541V24.7141H15.9955C15.1413 24.7141 14.3517 25.0032 13.7732 25.5817C13.1946 26.1603 12.9055 26.9498 12.9055 27.8041V29.8941C12.9055 30.7483 13.1946 31.5379 13.7732 32.1164C14.3517 32.6949 15.1413 32.984 15.9955 32.984H23.3554V40.344C23.3554 41.1982 23.6446 41.9878 24.2231 42.5663C24.8016 43.1449 25.5912 43.434 26.4454 43.434H28.5354C29.3897 43.434 30.1792 43.1449 30.7578 42.5663C31.3363 41.9878 31.6254 41.1982 31.6254 40.344V32.984H38.9853C39.8396 32.984 40.6292 32.6949 41.2077 32.1164C41.7862 31.5379 42.0753 30.7483 42.0753 29.8941V27.8041C42.0753 26.9498 41.7862 26.1603 41.2077 25.5817C40.6292 25.0032 39.8396 24.7141 38.9853 24.7141H31.6254V17.3541C31.6254 16.4999 31.3363 15.7103 30.7578 15.1318C30.1792 14.5533 29.3897 14.2642 28.5354 14.2642H26.4454Z" fill="white" stroke="black" stroke-width="2"/>
</svg>