<svg width="40" height="40" viewBox="0 0 40 40" fill="none" xmlns="http://www.w3.org/2000/svg">
<path d="M18.4615 0C16.6154 0 15.3846 1.23077 15.3846 3.07692V15.3846H3.07692C1.23077 15.3846 0 16.6154 0 18.4615V21.5385C0 23.3846 1.23077 24.6154 3.07692 24.6154H15.3846V36.9231C15.3846 38.7692 16.6154 40 18.4615 40H21.5385C23.3846 40 24.6154 38.7692 24.6154 36.9231V24.6154H36.9231C38.7692 24.6154 40 23.3846 40 21.5385V18.4615C40 16.6154 38.7692 15.3846 36.9231 15.3846H24.6154V3.07692C24.6154 1.23077 23.3846 0 21.5385 0H18.4615Z" fill="white"/>
</svg>
