<svg width="48" height="48" viewBox="0 0 48 48" fill="none" xmlns="http://www.w3.org/2000/svg">
<path d="M11.6425 1.7666L8.85537 17.9609C8.44734 20.3312 13.8206 21.4383 13.7328 23.8498L13.0361 42.9885C12.929 45.9309 15.8232 45.933 15.8232 45.933C15.8232 45.933 18.7173 45.9309 18.6103 42.9885L17.9135 23.8498C17.826 21.4424 22.7447 20.373 22.791 17.9609L20.0039 1.7666H18.6103L19.3071 13.5443L17.2168 15.0165L16.52 1.7666H15.1264L14.4296 15.0165L12.3393 13.5443L13.0361 1.7666H11.6425ZM35.3331 1.7666C33.2806 1.7666 29.8586 3.6949 28.4904 6.58574C27.3502 8.75401 26.9717 13.5979 26.9717 16.4887V23.8498C26.9717 26.2589 30.0122 26.7942 31.1524 26.7942L29.7588 42.9885C29.5066 45.9209 32.5459 45.933 32.5459 45.933C32.5459 45.933 35.3331 45.933 35.3331 42.9885V1.7666Z" fill="white"/>
</svg>
