<svg width="54" height="74" viewBox="0 0 54 74" fill="none" xmlns="http://www.w3.org/2000/svg">
<path d="M1.44687 33.1536C3.11066 44.1521 19.098 63.6339 26.8837 72C37.2824 59.8505 46.0813 49.4595 51.6805 33.1536C54.7143 24.3188 50.8852 0.182686 26.8837 1.02131C4.00649 1.82066 -0.632872 19.4054 1.44687 33.1536Z" fill="#0056BB" stroke="black" stroke-width="2"/>
<path d="M15.7863 42.1373C15.7868 42.1373 15.7873 42.1373 15.7873 41.1373V42.1373H38.4578V41.1373C38.4578 42.1373 38.4583 42.1373 38.4588 42.1373L38.4599 42.1373L38.4621 42.1372L38.4672 42.1372L38.4799 42.1371C38.4893 42.1369 38.5008 42.1366 38.5143 42.1362C38.5412 42.1353 38.576 42.1337 38.6176 42.1307C38.7006 42.1248 38.8125 42.1134 38.9442 42.0914C39.2029 42.0483 39.5632 41.9602 39.9355 41.7741C40.3118 41.5859 40.7184 41.288 41.0288 40.8225C41.3433 40.3507 41.5188 39.7665 41.5188 39.0763V24.6496C41.5188 23.9594 41.3433 23.3752 41.0288 22.9034C40.7184 22.4378 40.3118 22.14 39.9355 21.9518C39.5632 21.7657 39.2029 21.6776 38.9442 21.6344C38.8125 21.6125 38.7006 21.6011 38.6176 21.5952C38.576 21.5922 38.5412 21.5906 38.5143 21.5897C38.5008 21.5892 38.4893 21.589 38.4799 21.5888L38.4672 21.5887L38.4621 21.5886L38.4599 21.5886L38.4588 21.5886C38.4583 21.5886 38.4578 21.5886 38.4578 22.5886V21.5886H35.3359V18.4667C35.3359 17.7765 35.1605 17.1923 34.8459 16.7205C34.5356 16.255 34.1289 15.9571 33.7526 15.769C33.3803 15.5828 33.0201 15.4947 32.7614 15.4516C32.6296 15.4296 32.5177 15.4183 32.4347 15.4123C32.3931 15.4094 32.3583 15.4077 32.3314 15.4068C32.3179 15.4064 32.3064 15.4061 32.297 15.406L32.2844 15.4058L32.2793 15.4058L32.277 15.4058L32.2759 15.4058C32.2754 15.4058 32.2749 15.4058 32.2749 16.4058V15.4058L22.0726 15.4058L22.0712 15.4058L22.0726 16.4058C22.0712 15.4058 22.0708 15.4058 22.0703 15.4058L22.0693 15.4058L22.0672 15.4058L22.0624 15.4058L22.0501 15.406C22.0408 15.4061 22.0292 15.4064 22.0155 15.4068C21.9882 15.4077 21.9523 15.4092 21.909 15.4121C21.8228 15.4178 21.7055 15.4288 21.5672 15.45C21.2964 15.4915 20.917 15.5766 20.5273 15.7578C20.1358 15.9398 19.6997 16.2354 19.374 16.7131C19.0445 17.196 18.8768 17.7942 18.9092 18.4918V21.5886H15.7873V22.5886C15.7873 21.5886 15.7868 21.5886 15.7863 21.5886L15.7852 21.5886L15.783 21.5886L15.7778 21.5887L15.7652 21.5888C15.7558 21.589 15.7443 21.5892 15.7308 21.5897C15.7039 21.5906 15.6691 21.5922 15.6275 21.5952C15.5445 21.6011 15.4326 21.6125 15.3009 21.6344C15.0421 21.6776 14.6819 21.7657 14.3096 21.9518C13.9333 22.14 13.5267 22.4378 13.2163 22.9034C12.9017 23.3752 12.7263 23.9594 12.7263 24.6496V39.0763C12.7263 39.7665 12.9017 40.3507 13.2163 40.8225C13.5267 41.288 13.9333 41.5859 14.3096 41.7741C14.6819 41.9602 15.0421 42.0483 15.3009 42.0914C15.4326 42.1134 15.5445 42.1248 15.6275 42.1307C15.6691 42.1337 15.7039 42.1353 15.7308 42.1362C15.7443 42.1366 15.7558 42.1369 15.7652 42.1371L15.7778 42.1372L15.783 42.1372L15.7852 42.1373L15.7863 42.1373ZM24.0006 20.4972H30.2445V21.5886H24.0006V20.4972Z" fill="white" stroke="black" stroke-width="2"/>
</svg>