<svg width="40" height="35" viewBox="0 0 40 35" fill="none" xmlns="http://www.w3.org/2000/svg">
<path d="M20 0L0 9.33333L5.33333 11.7333V16.2667C3.73333 16.8 2.66667 18.4 2.66667 20C2.66667 21.6 3.73333 23.2 5.33333 23.7333V24L2.93333 29.6C2.13333 32 2.66667 34.6667 6.66667 34.6667C10.6667 34.6667 11.2 32 10.4 29.6L8 24C9.6 23.2 10.6667 21.8667 10.6667 20C10.6667 18.1333 9.6 16.8 8 16.2667V13.0667L20 18.6667L40 9.33333L20 0ZM31.7333 17.3333L19.7333 22.6667L13.3333 19.7333V20C13.3333 21.8667 12.5333 23.4667 11.2 24.8L12.8 28.5333V28.8C13.0667 29.8667 13.3333 30.9333 13.0667 32C14.9333 32.8 17.0667 33.3333 19.7333 33.3333C28.5333 33.3333 31.7333 28 31.7333 25.3333V17.3333Z" fill="white"/>
</svg>
