<svg width="40" height="36" viewBox="0 0 40 36" fill="none" xmlns="http://www.w3.org/2000/svg">
<path d="M36.8282 0.000144888C36.8131 -0.000276006 35.4915 -0.024267 34.1728 0.789322C32.847 1.60754 31.5671 3.37277 31.5671 6.31356H30.5312H0L3.15671 21.0449C3.60748 23.1493 6.31341 23.1493 6.31341 23.1493H31.5671C31.5671 23.1493 31.5557 24.1873 30.926 25.2374C30.2964 26.2875 29.1705 27.3583 26.3059 27.3583H4.20894C2.7859 27.3381 2.7859 29.4829 4.20894 29.4627H9.47012H26.3059C29.7547 29.4627 31.7859 27.9033 32.7342 26.3224C33.6829 24.742 33.6715 23.1493 33.6715 23.1493V6.31356C33.6715 3.92709 34.4961 3.06215 35.2747 2.58149C36.0534 2.10083 36.8118 2.10462 36.8118 2.10462H36.8282H38.9327C40.3558 2.12482 40.3558 -0.020058 38.9327 0.000144888H36.8447H36.8282ZM26.3059 29.4627C24.5625 29.4627 23.1492 30.8761 23.1492 32.6194C23.1492 34.3628 24.5625 35.7762 26.3059 35.7762C28.0492 35.7762 29.4626 34.3628 29.4626 32.6194C29.4626 30.8761 28.0492 29.4627 26.3059 29.4627ZM9.47012 29.4627C7.72678 29.4627 6.31341 30.8761 6.31341 32.6194C6.31341 34.3628 7.72678 35.7762 9.47012 35.7762C11.2135 35.7762 12.6268 34.3628 12.6268 32.6194C12.6268 30.8761 11.2135 29.4627 9.47012 29.4627Z" fill="white"/>
</svg>
