<svg width="55" height="75" viewBox="0 0 55 75" fill="none" xmlns="http://www.w3.org/2000/svg">
<path d="M1.45316 33.6064C3.14039 44.7598 19.3529 64.5161 27.2482 73C37.7934 60.6794 46.7162 50.142 52.3943 33.6064C55.4708 24.6472 51.5878 0.171175 27.2482 1.02162C4.04884 1.83222 -0.65587 19.6647 1.45316 33.6064Z" fill="#27B5AD" stroke="black" stroke-width="2"/>
<path d="M21.8897 43.7082C21.8901 44.2082 21.8903 44.2082 21.8906 44.2082L21.8911 44.2082L21.8924 44.2082L21.8954 44.2082L21.9035 44.2081L21.9273 44.2075C21.9466 44.2068 21.9724 44.2055 22.004 44.2032C22.0669 44.1986 22.1534 44.1896 22.2557 44.1721C22.4577 44.1375 22.7349 44.0673 23.016 43.9216C23.2995 43.7745 23.5953 43.5459 23.8128 43.1945C24.032 42.8405 24.1512 42.3949 24.1313 41.8498L23.6958 29.8881C23.6958 29.8881 23.6958 29.8881 23.6958 29.888C23.689 29.701 23.7733 29.5014 24.009 29.2515C24.2497 28.9964 24.5864 28.7533 24.9786 28.4747C24.9912 28.4657 25.004 28.4567 25.0167 28.4476C25.3793 28.1902 25.7879 27.9001 26.106 27.5747C26.4386 27.2344 26.7338 26.7944 26.7445 26.2353L26.7454 26.1878L26.7373 26.1409L24.9954 16.0194L24.9239 15.6042H24.5026H23.6317H23.1012L23.1325 16.1338L23.5516 23.2169L23.2125 23.4557L22.8245 16.078L22.7996 15.6042H22.3252H21.4542H20.9798L20.9549 16.078L20.5669 23.4557L20.2278 23.2169L20.6469 16.1338L20.6782 15.6042H20.1478H19.2768H18.8555L18.784 16.0194L17.0421 26.1409C17.0421 26.1409 17.0421 26.1409 17.0421 26.1409C16.9405 26.731 17.2165 27.2037 17.5465 27.5557C17.8692 27.9001 18.3125 28.2034 18.7021 28.4693L18.7215 28.4825C19.1267 28.759 19.4828 29.0021 19.7425 29.259C20.0045 29.5183 20.0898 29.716 20.0836 29.888L19.6481 41.8498L19.6481 41.8498C19.6283 42.3949 19.7474 42.8405 19.9666 43.1945C20.1841 43.5459 20.48 43.7745 20.7634 43.9216C21.0445 44.0673 21.3217 44.1375 21.5237 44.1721C21.626 44.1896 21.7125 44.1986 21.7754 44.2032C21.807 44.2055 21.8329 44.2068 21.8521 44.2075L21.876 44.2081L21.884 44.2082L21.887 44.2082L21.8883 44.2082L21.8888 44.2082C21.8891 44.2082 21.8893 44.2082 21.8897 43.7082ZM21.8897 43.7082L21.8901 44.2082H21.8893L21.8897 43.7082ZM32.3414 43.7082C32.3414 44.2082 32.3417 44.2082 32.342 44.2082H32.3425L32.3438 44.2082L32.3469 44.2082L32.3549 44.2081L32.3786 44.2075C32.3976 44.2068 32.423 44.2055 32.4539 44.2032C32.5156 44.1986 32.6002 44.1895 32.7003 44.1719C32.8983 44.137 33.1693 44.0664 33.4459 43.9203C33.725 43.7729 34.0153 43.5454 34.234 43.1987C34.454 42.8502 34.5834 42.4101 34.5834 41.868V16.1042V15.6042H34.0834C33.3107 15.6042 32.3599 15.9562 31.51 16.5149C30.6541 17.0775 29.8358 17.8916 29.3592 18.8929C28.9609 19.6561 28.7173 20.8249 28.569 21.9777C28.4177 23.1538 28.3575 24.3839 28.3575 25.3056V29.9062C28.3575 30.9239 29.0196 31.5233 29.6797 31.8414C30.0978 32.0429 30.5504 32.1529 30.9291 32.2057L30.1013 41.8251L30.1013 41.8251C30.0542 42.3729 30.159 42.8255 30.377 43.187C30.5928 43.5445 30.8962 43.7746 31.1851 43.9212C31.4719 44.0668 31.7572 44.1369 31.9647 44.1716C32.0699 44.1891 32.159 44.1982 32.2235 44.203C32.2559 44.2054 32.2824 44.2067 32.302 44.2074L32.3262 44.208L32.3342 44.2082L32.3372 44.2082L32.3384 44.2082L32.3389 44.2082C32.3392 44.2082 32.3394 44.2082 32.3414 43.7082ZM32.3414 43.7082V44.2082H32.3394L32.3414 43.7082Z" fill="white" stroke="black"/>
</svg>