<svg width="55" height="75" viewBox="0 0 55 75" fill="none" xmlns="http://www.w3.org/2000/svg">
<path d="M1.45316 33.6064C3.14039 44.7598 19.3529 64.5161 27.2482 73C37.7934 60.6794 46.7162 50.142 52.3943 33.6064C55.4708 24.6472 51.5878 0.171175 27.2482 1.02162C4.04884 1.83222 -0.65587 19.6647 1.45316 33.6064Z" fill="#EE1C43" stroke="black" stroke-width="2"/>
<path d="M36.5921 16.3077C35.5571 16.9465 34.6628 18.1484 34.4152 19.911H13.9055H12.6685L12.9277 21.1205L15.0719 31.1266C15.0719 31.1267 15.0719 31.1267 15.0719 31.1267C15.3268 32.3166 16.2339 32.8705 16.8987 33.1091C17.2356 33.2301 17.5506 33.2879 17.7768 33.3164C17.8917 33.3309 17.9883 33.3384 18.0595 33.3423C18.0952 33.3443 18.1248 33.3454 18.1474 33.3459L18.1761 33.3465L18.1864 33.3466L18.1905 33.3466L18.1923 33.3466H18.1931C18.1935 33.3466 18.1939 33.3466 18.1939 32.3466V33.3466H33.9937C33.8544 33.5562 33.6826 33.7362 33.4265 33.8785C33.1231 34.047 32.6232 34.2055 31.7737 34.2055H16.7702C16.2589 34.2005 15.7992 34.3981 15.4769 34.7566C15.1702 35.0978 15.0395 35.5262 15.0395 35.9203C15.0395 36.3143 15.1702 36.7427 15.4769 37.0839C15.7992 37.4425 16.259 37.6401 16.7704 37.635H17.4086C17.27 37.9896 17.1939 38.3755 17.1939 38.7792C17.1939 40.5156 18.6016 41.9233 20.3381 41.9233C22.0745 41.9233 23.4822 40.5156 23.4822 38.7792C23.4822 38.3755 23.4061 37.9896 23.2675 37.635H28.8442C28.7056 37.9896 28.6295 38.3755 28.6295 38.7792C28.6295 40.5156 30.0372 41.9233 31.7737 41.9233C33.5101 41.9233 34.9178 40.5156 34.9178 38.7792C34.9178 38.1796 34.75 37.6193 34.4588 37.1425C35.649 36.6567 36.4883 35.8653 36.9975 35.0166C37.3953 34.3539 37.5875 33.6973 37.6817 33.2125C37.7292 32.9681 37.7529 32.7616 37.7648 32.6113C37.7707 32.5359 37.7738 32.4742 37.7753 32.4283C37.7757 32.4151 37.776 32.4032 37.7762 32.3926C37.7764 32.3848 37.7765 32.3777 37.7766 32.3714L37.7767 32.3522V32.3466V32.345V20.911C37.7767 20.2117 37.8979 19.8319 38.0072 19.6251C38.1084 19.4333 38.2334 19.3242 38.391 19.227C38.5325 19.1396 38.6769 19.0939 38.7879 19.0711C38.8421 19.0599 38.8838 19.0551 38.9066 19.0531C38.913 19.0526 38.9177 19.0523 38.9206 19.0521H38.9209H40.3446C40.8559 19.0572 41.3156 18.8596 41.6379 18.5011C41.9446 18.1598 42.0753 17.7314 42.0753 17.3374C42.0753 16.9434 41.9446 16.515 41.6379 16.1737C41.3156 15.8152 40.8559 15.6176 40.3446 15.6227H38.9321H38.9268C38.7419 15.6209 37.6713 15.6418 36.5922 16.3076L36.5921 16.3077Z" fill="white" stroke="black" stroke-width="2"/>
</svg>