<svg width="54" height="74" viewBox="0 0 54 74" fill="none" xmlns="http://www.w3.org/2000/svg">
<path d="M1.44762 33.2077C3.11421 44.2247 19.1285 63.7394 26.9273 72.1196C37.3435 59.9496 46.1572 49.5411 51.7659 33.2077C54.8048 24.3581 50.9692 0.181309 26.9273 1.02135C4.01156 1.82204 -0.635623 19.4364 1.44762 33.2077Z" fill="#00904C" stroke="black" stroke-width="2"/>
<path d="M27.6349 14.2062L27.1666 13.9579L26.6983 14.2062L13.2795 21.3187L12.7478 21.6006V22.2023V23.3474V24.3474H13.7478H40.5854H41.5854V23.3474V22.2023V21.6006L41.0537 21.3187L27.6349 14.2062ZM15.8122 24.4119H14.8122V25.4119V35.4402L12.9068 38.4026L12.7478 38.6497V38.9436V41.9273V42.9273H13.7478H40.5854H41.5854V41.9273V38.9436V38.6497L41.4264 38.4026L39.521 35.4402V25.4119V24.4119H38.521H15.8122ZM20.9411 28.4763H21.0055V37.8307H20.9411V28.4763ZM27.1988 28.4763V37.8307H27.1344V28.4763H27.1988ZM33.3277 28.4763H33.3921V37.8307H33.3277V28.4763Z" fill="white" stroke="black" stroke-width="2"/>
</svg>
